Rock N Roll High School 1979 BRRip H264 LKRG
 
http://www.imdb.com/title/tt0079813/ 
http://en.wikipedia.org/wiki/Rock_%27n%27_Roll_High_School 

Release Date: 24 August 1979 (USA)

Genre: Comedy | Music

Plot: Vince Lombardi High School has quite a reputation: it's the wildest, most rockin' high school around! That is, until a thug of a principal, Miss Togar, comes along and tries to make the school a totalitarian state. With the help of the Ramones, the students of Vince Lombardi battle Miss Togar's iron-fisted rule and take their battle to a truly rockin' conclusion!

Cast:
P.J. Soles ... Riff Randell
Vincent Van Patten ... Tom Roberts
Clint Howard ... Eaglebauer
Dey Young ... Kate Rambeau
Mary Woronov ... Miss Evelyn Togar
Paul Bartel ... Mr. McGree
Dick Miller ... Police Chief
Don Steele ... Screamin' Steve Stevens
Alix Elias ... Coach Steroid
Loren Lester ... Fritz Hansel
Daniel Davies ... Fritz Gretel
Lynn Farrell ... Angel Dust
Herbie Braha ... Manager
Grady Sutton ... School Board President
Chris Somma ... Shawn
Marla Rosenfield ... Cheryl
Barbara Ann Grimes ... Cafeteria Lady (as Barbara Ann Walters)
Terry Soda ... Norma
Joe Van Sickle ... Cop
Joey Ramone ... Himself
Johnny Ramone ... Himself
Dee Dee Ramone ... Himself
Marky Ramone ... Himself
David N. Barber ... Native American scalper (uncredited)
Rodney Bingenheimer ... Driver of Pink car w / The Ramones (uncredited)
Rob Bottin ... Giant Mouse (uncredited)
Dinah Cancer ... Concert Girl with Ear Muffs (uncredited)
Ann Chatterton ... (uncredited)
Darby Crash ... (uncredited)
Sylvia Dante ... Nun (uncredited)
Debbie Evans ... (uncredited)
Jack Gill ... (uncredited)
Michael Goodwin ... Chemistry Teacher (uncredited)
John Hateley ... (uncredited)
Kay Kimler ... (uncredited)
Joseph McBride ... School board member (uncredited)
Jim Rygiel ... Guy in line at mayan theater (uncredited)
Teri Schwartz ... Nun (uncredited)
George Wagner ... Man Proposing in Phone Booth (uncredited)

File Name: Rock N Roll High School 1979 BRRip H264 LKRG-Wrath.mp4

File Size
Format : MPEG-4
Format profile : Base Media
Codec ID : isom
File size : 1.50 GiB
Duration : 1h 33mn
Overall bit rate : 2 299 Kbps

Video
ID : 1
Format : AVC
Format/Info : Advanced Video Codec
Format profile : High@L4.1
Format settings, CABAC : Yes
Format settings, ReFrames : 3 frames
Codec ID : avc1
Codec ID/Info : Advanced Video Coding
Duration : 1h 33mn
Bit rate mode : Variable
Bit rate : 2 138 Kbps
Maximum bit rate : 8 754 Kbps
Width : 1 280 pixels
Height : 720 pixels
Display aspect ratio : 16:9
Frame rate mode : Constant
Frame rate : 23.976 fps
Resolution : 24 bits
Colorimetry : 4:2:0
Scan type : Progressive
Bits/(Pixel*Frame) : 0.097
Stream size : 1.39 GiB (93%)

Audio #1
ID : 2
Format : AAC
Format/Info : Advanced Audio Codec
Format version : Version 4
Format profile : LC
Format settings, SBR : No
Codec ID : 40
Duration : 1h 33mn
Bit rate mode : Variable
Bit rate : 160 Kbps
Maximum bit rate : 173 Kbps
Channel(s) : 2 channels
Channel positions : L R
Sampling rate : 48.0 KHz
Resolution : 16 bits
Stream size : 107 MiB (7%)

English SRT : N/A

Language :English